name GIL03_xfast2.mot
datacolumns 153
datarows 4
range 0.23333333 0.25833333
endheader

                time	           pelvis_tx	           pelvis_ty	           pelvis_tz	         pelvis_tilt	         pelvis_list	     pelvis_rotation	       hip_flexion_r	     hip_adduction_r	      hip_rotation_r	        knee_angle_r	       ankle_angle_r	    subtalar_angle_r	         mtp_angle_r	       hip_flexion_l	     hip_adduction_l	      hip_rotation_l	        knee_angle_l	       ankle_angle_l	    subtalar_angle_l	         mtp_angle_l	    lumbar_extension	      lumbar_bending	     lumbar_rotation	     ground_force_vx	     ground_force_vy	     ground_force_vz	     ground_force_px	     ground_force_py	     ground_force_pz	     ground_force_vx	     ground_force_vy	     ground_force_vz	     ground_force_px	     ground_force_py	     ground_force_pz	     ground_torque_x	     ground_torque_y	     ground_torque_z	     ground_torque_x	     ground_torque_y	     ground_torque_z	    ground_marker_px	    ground_marker_py	    ground_marker_pz	    ground_marker_px	    ground_marker_py	    ground_marker_pz	    ground_marker_px	    ground_marker_py	    ground_marker_pz	    ground_marker_px	    ground_marker_py	    ground_marker_pz	    ground_marker_px	    ground_marker_py	    ground_marker_pz	    ground_marker_px	    ground_marker_py	    ground_marker_pz	    ground_marker_px	    ground_marker_py	    ground_marker_pz	    ground_marker_px	    ground_marker_py	    ground_marker_pz	    ground_marker_px	    ground_marker_py	    ground_marker_pz	    ground_marker_px	    ground_marker_py	    ground_marker_pz	    ground_marker_px	    ground_marker_py	    ground_marker_pz	    ground_marker_px	    ground_marker_py	    ground_marker_pz	    ground_marker_px	    ground_marker_py	    ground_marker_pz	    ground_marker_px	    ground_marker_py	    ground_marker_pz	    ground_marker_px	    ground_marker_py	    ground_marker_pz	    ground_marker_px	    ground_marker_py	    ground_marker_pz	    ground_marker_px	    ground_marker_py	    ground_marker_pz	    ground_marker_px	    ground_marker_py	    ground_marker_pz	    ground_marker_px	    ground_marker_py	    ground_marker_pz	    ground_marker_px	    ground_marker_py	    ground_marker_pz	    ground_marker_px	    ground_marker_py	    ground_marker_pz	    ground_marker_px	    ground_marker_py	    ground_marker_pz	    ground_marker_px	    ground_marker_py	    ground_marker_pz	    ground_marker_px	    ground_marker_py	    ground_marker_pz	    ground_marker_px	    ground_marker_py	    ground_marker_pz	    ground_marker_px	    ground_marker_py	    ground_marker_pz	    ground_marker_px	    ground_marker_py	    ground_marker_pz	    ground_marker_px	    ground_marker_py	    ground_marker_pz	    ground_marker_px	    ground_marker_py	    ground_marker_pz	    ground_marker_px	    ground_marker_py	    ground_marker_pz	    ground_marker_px	    ground_marker_py	    ground_marker_pz	    ground_marker_px	    ground_marker_py	    ground_marker_pz	    ground_marker_px	    ground_marker_py	    ground_marker_pz	    ground_marker_px	    ground_marker_py	    ground_marker_pz	    ground_marker_px	    ground_marker_py	    ground_marker_pz	    ground_marker_px	    ground_marker_py	    ground_marker_pz	    ground_marker_px	    ground_marker_py	    ground_marker_pz	
          0.23333333	          0.85987473	          0.89141726	         -0.28532764	         -5.37254715	          4.53816748	         -1.26104677	         30.63608932	        -10.64189625	         -8.56258106	        -46.87717819	          4.90378618	          0.00000000	          0.00000000	         -1.44300842	          4.52620173	          0.87609196	         -7.48091555	         10.52261639	          0.00000000	          0.00000000	        -20.43545341	         -4.46746302	          4.12263441	          0.00000000	          0.00000000	          0.00000000	          1.25323352	          0.00000000	         -0.24206029	         14.15586476	        350.49595961	         32.09577021	          0.74857587	          0.00000000	         -0.34865500	          0.00000000	          0.00000000	          0.00000000	          0.00000000	          0.41638086	          0.00000000	          0.79236019	          0.83506501	         -0.29756030	          0.79314923	          0.81566525	         -0.23483309	          0.78838283	          0.82364899	         -0.35193631	          0.95151490	          0.46903533	         -0.18038255	          0.74522370	          0.46972042	         -0.35011286	          0.82647842	          0.11847655	         -0.23685673	          0.64261657	          0.07240249	         -0.34290519	          0.85987473	          0.89141726	         -0.28532764	          0.85539526	          0.88449830	         -0.18528116	          0.86435425	          0.89833629	         -0.38537413	          0.70725203	          0.93583834	         -0.26238066	          0.71064031	          0.94214255	         -0.31679690	          0.94767129	          0.47583148	         -0.12593956	          0.76131457	          0.46749023	         -0.40213552	          0.97821760	          0.46585137	         -0.22825477	          0.73311919	          0.45020047	         -0.31572181	          0.80454785	          0.12122023	         -0.20533259	          0.64772314	          0.07039243	         -0.38101205	          0.86088502	          0.11958797	         -0.25257608	          0.65784496	          0.08598432	         -0.31725898	          0.80109805	          1.34491384	         -0.25670728	          0.89002496	          1.24910402	         -0.21480726	          0.88438231	          1.25220168	         -0.31955433	          0.87452078	          1.26445448	         -0.27134946	          0.89457148	          1.09025395	         -0.27645990	          1.01259816	          0.69119173	         -0.18050085	          0.89350647	          0.61191088	         -0.31719169	          0.91782868	          0.70193964	         -0.15032561	          0.83991975	          0.66184491	         -0.38948935	          0.95137256	          0.62390751	         -0.14140838	          0.83047414	          0.57512492	         -0.38516295	          0.81574303	          0.23198843	         -0.12640479	          0.64418852	          0.19205526	         -0.45277938	          0.83826244	          0.23670691	         -0.16299501	          0.65283424	          0.19682483	         -0.41096142	          0.89884937	          0.06577902	         -0.15742017	          0.76465631	          0.03699761	         -0.34154600	
          0.24166667	          0.87608635	          0.89020860	         -0.28529358	         -5.39215851	          4.46357965	         -0.87509263	         31.38039398	        -10.76904774	         -8.59145832	        -43.68397903	          3.91533804	          0.00000000	          0.00000000	         -2.87168026	          4.45657969	          1.00604820	         -6.95547485	         10.53938389	          0.00000000	          0.00000000	        -20.46107292	         -4.63038445	          4.01453352	          0.00000000	          0.00000000	          0.00000000	          1.26183667	          0.00000000	         -0.23849811	         15.61910029	        365.01083163	         31.56048050	          0.75368768	          0.00000000	         -0.34702759	          0.00000000	          0.00000000	          0.00000000	          0.00000000	          0.34879065	          0.00000000	          0.80835009	          0.83381867	         -0.29699963	          0.80971956	          0.81440544	         -0.23440455	          0.80415565	          0.82247764	         -0.35146657	          0.97294432	          0.46974099	         -0.18010268	          0.75231886	          0.46980193	         -0.35030457	          0.87286645	          0.11130656	         -0.23531890	          0.64362502	          0.07417697	         -0.34287885	          0.87608635	          0.89020860	         -0.28529358	          0.87228316	          0.88320291	         -0.18508811	          0.87988955	          0.89721435	         -0.38549906	          0.72358823	          0.93446821	         -0.26065999	          0.72649693	          0.94098878	         -0.31502122	          0.96925628	          0.47657290	         -0.12565340	          0.76803321	          0.46732047	         -0.40243089	          0.99914348	          0.46708271	         -0.22653830	          0.74009687	          0.45090541	         -0.31504765	          0.85046935	          0.11274109	         -0.20403692	          0.64854956	          0.07210836	         -0.38100654	          0.90813762	          0.11393332	         -0.25055143	          0.65913028	          0.08744180	         -0.31723562	          0.81831139	          1.34335983	         -0.25585479	          0.90764487	          1.24730527	         -0.21376942	          0.90132248	          1.25013971	         -0.31874645	          0.89178807	          1.26266956	         -0.27039105	          0.91161072	          1.08829129	         -0.27515897	          1.02996671	          0.69333613	         -0.18111657	          0.90451312	          0.60869044	         -0.31787860	          0.93525338	          0.70267981	         -0.14987195	          0.85134035	          0.66024446	         -0.38929406	          0.97033072	          0.62531739	         -0.14068310	          0.83974141	          0.57346803	         -0.38514251	          0.85318637	          0.22443886	         -0.12576808	          0.64657736	          0.19377217	         -0.45275700	          0.87682658	          0.22980969	         -0.16184323	          0.65526515	          0.19838406	         -0.41096073	          0.94712138	          0.06221899	         -0.15462895	          0.76519233	          0.03692072	         -0.34154159	
          0.25000000	          0.89234596	          0.88897741	         -0.28513572	         -5.36208916	          4.40333319	         -0.50378966	         31.91081619	        -10.84888935	         -8.60526085	        -40.25148010	          2.78740263	          0.00000000	          0.00000000	         -4.30074358	          4.39506197	          1.17544937	         -6.54081392	         10.52175713	          0.00000000	          0.00000000	        -20.52037239	         -4.85927629	          3.98502827	          0.00000000	          0.00000000	          0.00000000	          1.26910632	          0.00000000	         -0.23507755	         18.16852900	        379.42547388	         30.99484269	          0.75833966	          0.00000000	         -0.34534897	          0.00000000	          0.00000000	          0.00000000	          0.00000000	          0.28634045	          0.00000000	          0.82463574	          0.83255202	         -0.29632300	          0.82638788	          0.81305909	         -0.23388819	          0.82005727	          0.82123357	         -0.35090411	          0.99352401	          0.46983406	         -0.18018405	          0.75984949	          0.46992129	         -0.35029325	          0.91892469	          0.10482082	         -0.23337480	          0.64466166	          0.07621662	         -0.34281084	          0.89234596	          0.88897741	         -0.28513572	          0.88919520	          0.88186580	         -0.18478005	          0.89549673	          0.89608908	         -0.38549137	          0.74004453	          0.93292028	         -0.25881276	          0.74245822	          0.93965006	         -0.31312972	          0.99003863	          0.47665870	         -0.12572052	          0.77523357	          0.46719396	         -0.40250570	          1.01844764	          0.46759331	         -0.22517307	          0.74747360	          0.45143089	         -0.31470662	          0.89622611	          0.10492829	         -0.20227794	          0.64942825	          0.07409709	         -0.38095582	          0.95505279	          0.10908531	         -0.24800815	          0.66050792	          0.08905005	         -0.31720129	          0.83551764	          1.34171939	         -0.25493047	          0.92542338	          1.24560571	         -0.21291006	          0.91827047	          1.24814343	         -0.31800690	          0.90897155	          1.26089990	         -0.26951808	          0.92896587	          1.08642125	         -0.27395913	          1.04707539	          0.69440174	         -0.18186338	          0.91576916	          0.60562897	         -0.31828400	          0.95228183	          0.70277590	         -0.14918230	          0.86281860	          0.65854418	         -0.38888779	          0.98859435	          0.62599826	         -0.13998117	          0.84926587	          0.57206768	         -0.38508713	          0.89049262	          0.21703410	         -0.12477949	          0.64922112	          0.19575246	         -0.45259127	          0.91514266	          0.22330205	         -0.16022117	          0.65752846	          0.20020963	         -0.41099313	          0.99521834	          0.05931150	         -0.15191007	          0.76572341	          0.03688563	         -0.34150884	
          0.25833333	          0.90872645	          0.88772929	         -0.28486454	         -5.28842735	          4.34232092	         -0.11644135	         32.21520996	        -10.87449837	         -8.63539028	        -36.61676407	          1.60941124	          0.00000000	          0.00000000	         -5.71577549	          4.32401037	          1.38188839	         -6.25867891	         10.47009468	          0.00000000	          0.00000000	        -20.67680550	         -4.80901480	          3.65237665	          0.00000000	          0.00000000	          0.00000000	          1.27495349	          0.00000000	         -0.23176291	         22.34926031	        394.18499282	         30.18405725	          0.76227100	          0.00000000	         -0.34364847	          0.00000000	          0.00000000	          0.00000000	          0.00000000	          0.20874622	          0.00000000	          0.84121519	          0.83125496	         -0.29550728	          0.84325254	          0.81164163	         -0.23324862	          0.83611721	          0.81991994	         -0.35021093	          1.01328290	          0.46929720	         -0.18069279	          0.76791424	          0.47005725	         -0.35008436	          0.96427757	          0.09906362	         -0.23100914	          0.64576125	          0.07854197	         -0.34271324	          0.90872645	          0.88772929	         -0.28486454	          0.90626359	          0.88050544	         -0.18438889	          0.91118932	          0.89495319	         -0.38534021	          0.75665855	          0.93123507	         -0.25683242	          0.75856161	          0.93815112	         -0.31112996	          1.01005983	          0.47606122	         -0.12620555	          0.78298581	          0.46710029	         -0.40237543	          1.03641307	          0.46710223	         -0.22388677	          0.75544506	          0.45202494	         -0.31409743	          0.94142044	          0.09788173	         -0.20005107	          0.65038830	          0.07637986	         -0.38087296	          1.00122046	          0.10502986	         -0.24505599	          0.66174209	          0.09098336	         -0.31708217	          0.85271680	          1.34006810	         -0.25398466	          0.94280356	          1.24394763	         -0.21219213	          0.93552089	          1.24642158	         -0.31717020	          0.92605078	          1.25920165	         -0.26871598	          0.94636685	          1.08473110	         -0.27310443	          1.06403911	          0.69435418	         -0.18276338	          0.92735904	          0.60271782	         -0.31847337	          0.96912074	          0.70223552	         -0.14874212	          0.87454569	          0.65690273	         -0.38835168	          1.00627983	          0.62587482	         -0.13947901	          0.85919005	          0.57084972	         -0.38483715	          0.92737895	          0.20995590	         -0.12348624	          0.65216070	          0.19801222	         -0.45229411	          0.95294118	          0.21721472	         -0.15837862	          0.65968269	          0.20237558	         -0.41106009	          1.04281712	          0.05727025	         -0.14922294	          0.76624364	          0.03689966	         -0.34145772	
